<?xml version="1.0" encoding="utf-8"?><svg xmlns="http://www.w3.org/2000/svg" xmlns:xlink="http://www.w3.org/1999/xlink"><defs><svg fill="none" viewBox="0 0 56 56" id="how1" xmlns="http://www.w3.org/2000/svg"><path d="M54.295 31.663c-5.883-9.008-5.258-18.242-8.094-22.583-2.835-4.342-11.287-11.827-31.255 1.216C-5.023 23.34.056 37.52 3.176 42.292c14.604 22.357 61.54 5.325 51.119-10.629z" fill="#ECEFF2"/><path d="M29.167 17.805a.814.814 0 01-.56.771l-7.556 2.475-2.475 7.556a.814.814 0 01-.771.56.806.806 0 01-.755-.52l-6.492-17.043a.678.678 0 01-.058-.292c0-.446.366-.812.812-.812.106 0 .202.016.292.058L28.65 17.05a.804.804 0 01.518.755z" fill="#F3F3F1"/><path d="M14.058 11.604c-.018-.037-.016-.082-.025-.12l-2.429-.926a.678.678 0 00-.292-.058.815.815 0 00-.812.812c0 .106.016.202.056.292l6.493 17.045c.113.3.406.52.754.52a.814.814 0 00.772-.56l.905-2.765-5.422-14.24z" fill="#E1E6EA"/><path d="M35 45.5c5.799 0 10.5-4.701 10.5-10.5S40.799 24.5 35 24.5 24.5 29.201 24.5 35 29.201 45.5 35 45.5z" fill="#2A6CEA"/><path d="M28 35c0-5.202 3.786-9.508 8.75-10.343A10.479 10.479 0 0035 24.5c-5.8 0-10.5 4.7-10.5 10.5S29.2 45.5 35 45.5c.597 0 1.18-.062 1.75-.157C31.786 44.508 28 40.202 28 35z" fill="#191C1F" fill-opacity=".1"/><path d="M46.867 19.727l1.1-1.1 2.2 2.2-1.1 1.1-2.2-2.2zM40.545 13.401l1.1-1.1 2.2 2.2-1.1 1.1-2.2-2.2zM47.143 14.502l2.2-2.2 1.1 1.1-2.2 2.2-1.1-1.1zM40.82 20.825l2.2-2.2 1.1 1.1-2.2 2.2-1.1-1.1z" fill="#C2C8CD"/><path d="M38.538 40.18l-4.278-3.5a1.16 1.16 0 01-.428-.902v-6.611h2.333v6.058l3.85 3.15-1.477 1.805z" fill="#fff"/><path d="M17.804 30.333a1.986 1.986 0 01-1.846-1.272L9.465 12.02a1.797 1.797 0 01-.132-.71c0-1.09.887-1.977 1.977-1.977.274 0 .53.052.764.156l16.986 6.47a1.976 1.976 0 01-.093 3.727l-6.994 2.29-2.29 6.995a1.973 1.973 0 01-1.88 1.362zm-5.877-18.405l5.854 15.36 2.162-6.6c.115-.354.393-.63.745-.746l6.6-2.162-15.36-5.852zm-.737-.282c.004.002.01.005.018.007l-.018-.007zm.435-.513l.02.053-.02-.053z" fill="#191C1F"/></svg><svg fill="none" viewBox="0 0 56 56" id="how2" xmlns="http://www.w3.org/2000/svg"><path d="M54.295 31.663c-5.883-9.008-5.258-18.242-8.094-22.583-2.835-4.342-11.287-11.827-31.255 1.216C-5.023 23.34.056 37.52 3.176 42.292c14.604 22.357 61.54 5.325 51.119-10.629z" fill="#ECEFF2"/><path d="M48.154 32.692l1.1-1.1 2.2 2.2-1.1 1.1-2.2-2.2zM41.83 26.369l1.1-1.1 2.2 2.2-1.1 1.1-2.2-2.2zM48.432 27.477l2.2-2.2 1.1 1.1-2.2 2.2-1.1-1.1zM29.54 51.458a2.336 2.336 0 01-2.333-2.333 2.336 2.336 0 012.333-2.334 2.336 2.336 0 012.334 2.334 2.336 2.336 0 01-2.334 2.333zm0-3.111a.778.778 0 100 1.556.778.778 0 000-1.556z" fill="#C2C8CD"/><path d="M30.38 26.056H12.835v16.333h22.555V26.056h-5.008z" fill="#F3F3F1"/><path d="M39.278 31.578h-3.89v10.81H45.5V37.8a6.222 6.222 0 00-6.222-6.222z" fill="#2A6CEA"/><path d="M21 45.5a2.722 2.722 0 100-5.444 2.722 2.722 0 000 5.444zM39.667 45.5a2.722 2.722 0 100-5.444 2.722 2.722 0 000 5.444z" fill="#F3F3F1"/><path d="M19.445 28.389a8.944 8.944 0 100-17.889 8.944 8.944 0 000 17.889z" fill="#2A6CEA"/><path d="M16.332 28h-3.889v14.778h3.89V28z" fill="#E1E6EA"/><path d="M35.389 31.578v10.81h3.5v-10.81h-3.5z" fill="#191C1F" fill-opacity=".1"/><path d="M21.777 42.778c0-.834.383-1.57.973-2.07a2.7 2.7 0 00-1.75-.652 2.723 2.723 0 000 5.444 2.7 2.7 0 001.75-.653 2.703 2.703 0 01-.973-2.07zM40.445 42.778c0-.834.383-1.57.972-2.07a2.699 2.699 0 00-1.75-.652 2.723 2.723 0 000 5.444c.671 0 1.276-.252 1.75-.653a2.704 2.704 0 01-.972-2.07z" fill="#D5DBE1"/><path d="M14 19.445c0-4.34 3.092-7.957 7.195-8.77a8.944 8.944 0 00-10.695 8.77 8.944 8.944 0 0010.695 8.77C17.092 27.4 14 23.785 14 19.445z" fill="#191C1F" fill-opacity=".1"/><path d="M19.446 23.722c-.299 0-.597-.113-.824-.342l-4.667-4.666 1.65-1.651 3.843 3.842 3.842-3.842 1.65 1.65-4.666 4.667a1.17 1.17 0 01-.828.342z" fill="#fff"/><path d="M19.446 43.556h-6.611a1.167 1.167 0 01-1.167-1.167V30.162h2.333v11.06h5.445v2.334zM35.39 43.556H22.525v-2.334h11.698v-14h-4.06V24.89h5.227c.644 0 1.166.523 1.166 1.167v16.333c0 .644-.522 1.167-1.166 1.167z" fill="#191C1F"/><path d="M45.5 43.556h-4.31v-2.334h3.144V37.8a5.061 5.061 0 00-5.056-5.056h-2.722v8.478h1.556v2.334h-2.723a1.167 1.167 0 01-1.166-1.167V31.578c0-.644.522-1.167 1.166-1.167h3.89c4.073 0 7.388 3.315 7.388 7.389v4.589c0 .644-.523 1.166-1.167 1.166zM21 46.667a3.894 3.894 0 01-3.889-3.89 3.894 3.894 0 013.89-3.888 3.894 3.894 0 013.888 3.889A3.894 3.894 0 0121 46.667zm0-5.445c-.857 0-1.555.699-1.555 1.556 0 .857.698 1.556 1.555 1.556s1.556-.699 1.556-1.556c0-.857-.699-1.556-1.556-1.556z" fill="#191C1F"/><path d="M39.668 46.667a3.894 3.894 0 01-3.889-3.89 3.894 3.894 0 013.89-3.888 3.894 3.894 0 013.888 3.889 3.894 3.894 0 01-3.889 3.889zm0-5.445c-.857 0-1.555.699-1.555 1.556 0 .857.698 1.556 1.555 1.556s1.556-.699 1.556-1.556c0-.857-.699-1.556-1.556-1.556z" fill="#191C1F"/></svg><svg fill="none" viewBox="0 0 56 56" id="how3" xmlns="http://www.w3.org/2000/svg"><path d="M6.482 42.97c0-10.76-5.574-18.15-5.574-23.334 0-5.185 2.98-16.074 26.832-16.074 23.851 0 27.351 14.649 27.351 20.352.002 26.704-48.61 38.11-48.61 19.055z" fill="#ECEFF2"/><path d="M41.416 12.833h1.556v3.111h-1.556v-3.11zM44.916 17.5h3.111v1.555h-3.111V17.5z" fill="#C2C8CD"/><path d="M33.056 37.831v-24.22a3.11 3.11 0 00-3.112-3.111H13.611a3.11 3.11 0 00-3.111 3.111v24.22a3.11 3.11 0 003.111 3.111h16.333a3.11 3.11 0 003.112-3.11z" fill="#F3F3F1"/><path d="M37.333 45.5s8.166-3.472 8.166-10.416v-6.25l-8.166-2.778-8.167 2.778v6.25c0 6.944 8.167 10.416 8.167 10.416z" fill="#2A6CEA"/><path d="M14 37.831v-24.22a3.11 3.11 0 013.111-3.111h-3.5a3.11 3.11 0 00-3.111 3.111v24.22a3.11 3.11 0 003.111 3.111h3.5A3.11 3.11 0 0114 37.832z" fill="#E1E6EA"/><path d="M32.666 35.084v-6.25l6.417-2.183-1.75-.595-8.167 2.778v6.25c0 6.944 8.167 10.416 8.167 10.416s.732-.316 1.75-.932c-2.399-1.453-6.417-4.609-6.417-9.484z" fill="#191C1F" fill-opacity=".1"/><path d="M23.723 42H13.612a4.281 4.281 0 01-4.278-4.278v-24.11a4.281 4.281 0 014.278-4.279h16.333a4.281 4.281 0 014.278 4.278v8.556H31.89V13.61a1.947 1.947 0 00-1.945-1.944H13.612a1.947 1.947 0 00-1.945 1.944v24.111c0 1.072.873 1.945 1.945 1.945h10.11V42z" fill="#191C1F"/><path d="M15.99 29.213l-1.648-1.649 3.889-3.889c.371-.373.945-.449 1.403-.188l1.98 1.133 4.427-4.087 1.584 1.716-5.056 4.667c-.375.345-.93.407-1.37.155l-1.95-1.114-3.258 3.256z" fill="#191C1F"/><path d="M28 26.444h-2.334v-3.889h-3.889v-2.333h5.056c.644 0 1.167.523 1.167 1.167v5.055z" fill="#191C1F"/><path d="M36.943 39.667c-.308 0-.606-.123-.824-.343l-3.111-3.11 1.65-1.651 2.16 2.16 3.859-5.145 1.865 1.4-4.667 6.222a1.16 1.16 0 01-.85.463c-.027.004-.054.004-.082.004z" fill="#fff"/></svg><svg fill="none" viewBox="0 0 56 56" id="how4" xmlns="http://www.w3.org/2000/svg"><path d="M20.86 54.517c9.797-4.447 18.83-2.425 23.551-4.567 4.721-2.143 13.404-9.358 3.547-31.077C38.1-2.845 23.316.02 18.122 2.378-6.194 13.412 3.508 62.392 20.86 54.517z" fill="#ECEFF2"/><path d="M21.23 15.322h-.14l3.644-2.915c.793-.631.342-1.907-.664-1.907h-9.966c-1.008 0-1.458 1.276-.665 1.907l3.643 2.915h-.14c-3.708 2.175-6.698 8.37-6.698 12.86 0 3.215 1.607 6.43 5.357 6.43h7.234c3.75 0 5.357-3.216 5.357-6.43.003-4.49-3.254-10.685-6.962-12.86z" fill="#F3F3F1"/><path d="M13.746 28.182c0-4.49 2.99-10.684 6.698-12.86h.14l-3.643-2.915c-.793-.631-.342-1.907.664-1.907h-3.5c-1.008 0-1.457 1.276-.664 1.907l3.643 2.915h-.14c-3.708 2.175-6.698 8.37-6.698 12.86 0 3.215 1.607 6.43 5.357 6.43h3.5c-3.75 0-5.357-3.216-5.357-6.43z" fill="#E1E6EA"/><path d="M38.669 15.322h-.14l3.643-2.915c.793-.631.342-1.907-.665-1.907h-9.966c-1.008 0-1.458 1.276-.664 1.907l3.643 2.915h-.14c-3.709 2.175-6.698 8.37-6.698 12.86 0 3.215 1.607 6.43 5.357 6.43h7.233c3.75 0 5.358-3.216 5.358-6.43.004-4.49-3.253-10.685-6.962-12.86z" fill="#F3F3F1"/><path d="M31.185 28.182c0-4.49 2.99-10.684 6.698-12.86h.14l-3.644-2.915c-.794-.631-.343-1.907.664-1.907h-3.5c-1.008 0-1.458 1.276-.664 1.907l3.643 2.915h-.14c-3.709 2.175-6.698 8.37-6.698 12.86 0 3.215 1.607 6.43 5.357 6.43h3.5c-3.747 0-5.356-3.216-5.356-6.43z" fill="#E1E6EA"/><path d="M30.204 26.211h-.14l3.643-2.915c.793-.632.342-1.907-.664-1.907h-9.967c-1.008 0-1.457 1.275-.664 1.907l3.643 2.915h-.14c-3.708 2.175-6.698 8.369-6.698 12.86 0 3.215 1.607 6.429 5.357 6.429h7.233c3.75 0 5.358-3.215 5.358-6.43.003-4.49-3.254-10.684-6.961-12.859z" fill="#2A6CEA"/><path d="M27.27 40.755c-.308 0-.607-.122-.825-.342l-3.111-3.11 1.65-1.651 2.161 2.16 3.858-5.145 1.865 1.4-4.667 6.222a1.16 1.16 0 01-.85.463c-.027.003-.053.003-.081.003z" fill="#fff"/><path d="M22.72 39.07c0-4.489 2.99-10.683 6.699-12.859h.14l-3.643-2.915c-.794-.632-.342-1.907.664-1.907h-3.5c-1.008 0-1.457 1.275-.664 1.907l3.643 2.915h-.14c-3.709 2.175-6.698 8.369-6.698 12.86 0 3.215 1.607 6.429 5.357 6.429h3.5c-3.75 0-5.357-3.215-5.357-6.43z" fill="#191C1F" fill-opacity=".1"/><path d="M46.615 42.637l2.2-2.2 1.1 1.1-2.2 2.2-1.1-1.1zM40.291 48.96l2.2-2.2 1.1 1.1-2.2 2.2-1.1-1.1zM40.291 41.261l1.1-1.1 2.2 2.2-1.1 1.1-2.2-2.2zM46.615 47.585l1.1-1.1 2.2 2.2-1.1 1.1-2.2-2.2z" fill="#C2C8CD"/><path d="M22.074 16.234l-1.457-1.823 3.431-2.744h-9.412l3.431 2.744-1.457 1.823-3.644-2.915a2.21 2.21 0 01-.715-2.49 2.209 2.209 0 012.108-1.496h9.966c.963 0 1.789.588 2.108 1.498.319.91.037 1.887-.716 2.49l-3.643 2.913z" fill="#191C1F"/><path d="M13.717 14.156h11.251v2.333H13.717v-2.333z" fill="#191C1F"/><path d="M15.86 35.778c-4.508 0-6.526-3.816-6.526-7.597 0-4.54 2.987-11.351 7.274-13.865l1.18 2.011c-3.204 1.88-6.12 7.53-6.12 11.854 0 .878.202 5.264 4.192 5.264v2.333zM39.392 16.234l-1.457-1.823 3.431-2.744h-9.412l3.431 2.744-1.457 1.823-3.643-2.914a2.216 2.216 0 01-.716-2.49 2.21 2.21 0 012.108-1.497h9.966c.963 0 1.79.588 2.108 1.498.319.91.037 1.887-.715 2.49l-3.644 2.913z" fill="#191C1F"/><path d="M31.033 14.156h11.252v2.333H31.032v-2.333z" fill="#191C1F"/><path d="M40.143 35.778v-2.333c3.989 0 4.191-4.384 4.191-5.264 0-4.323-2.917-9.973-6.121-11.854l1.18-2.011c4.286 2.514 7.274 9.325 7.274 13.865 0 3.781-2.017 7.597-6.524 7.597z" fill="#191C1F"/></svg></defs></svg>